<svg xmlns="http://www.w3.org/2000/svg" width="18.111" height="18.046" viewBox="0 0 18.111 18.046">
  <path id="Path_22" data-name="Path 22" d="M652.316,98.4c1.48,0,2.962-.043,4.44.009a4.53,4.53,0,0,1,4.556,4.614c.053,2.913.047,5.828,0,8.741a4.527,4.527,0,0,1-4.145,4.588c-1.374.131-2.771.038-4.157.037-.444,0-.873-.084-.85-.66s.462-.61.9-.611c1.11,0,2.22.019,3.33,0a3.343,3.343,0,0,0,3.586-3.541c.045-2.774.042-5.55.016-8.325a3.333,3.333,0,0,0-3.427-3.575q-4.3-.126-8.6,0a3.33,3.33,0,0,0-3.351,3.517c-.04,2.774-.034,5.55,0,8.325a3.357,3.357,0,0,0,3.4,3.6c.509.047,1.147-.044,1.06.713-.079.695-.71.589-1.216.574a4.573,4.573,0,0,1-4.536-4.368c-.1-3.1-.106-6.2,0-9.295a4.545,4.545,0,0,1,4.559-4.337c1.479-.047,2.96-.009,4.44-.009Z" transform="translate(-643.238 -98.371)" fill="#121212"/>
</svg>
