<svg xmlns="http://www.w3.org/2000/svg" width="18.177" height="18.17" viewBox="0 0 18.177 18.17">
  <path id="Path_21" data-name="Path 21" d="M926.507,107.851v7.031a9.631,9.631,0,0,0,3.428.019,3.172,3.172,0,0,0,2.624-3.013c.072-3.051.085-6.107.005-9.157a3.273,3.273,0,0,0-3.343-3.222q-4.37-.082-8.743,0A3.366,3.366,0,0,0,917.09,103q-.063,4.232.011,8.465c.039,2.121,1.278,3.332,3.482,3.526.47.041,1.005-.022.986.655-.021.731-.585.7-1.113.69a4.652,4.652,0,0,1-4.62-4.45q-.118-4.576-.007-9.158a4.493,4.493,0,0,1,4.524-4.5c2.959-.067,5.922-.055,8.882,0a4.576,4.576,0,0,1,4.671,4.67c.069,2.959.059,5.922-.006,8.881a4.579,4.579,0,0,1-4.138,4.477,40.566,40.566,0,0,1-4.158.08c-.517,0-1.089-.22-.862-.767.782-1.886.2-3.828.381-5.733.055-.594.009-1.2.009-1.754-.493-.459-1.567.116-1.552-.883.013-.9.941-.464,1.559-.8,0-.562-.041-1.2.009-1.825a2.35,2.35,0,0,1,1.627-2.209,2.829,2.829,0,0,1,2.765.375c.3.235.555.529.311.948-.2.336-.492.34-.842.249-1.543-1.1-2.562-.467-2.533,1.908,0,.18,0,.36,0,.535.563.339,1.126.15,1.659.2.419.037.749.186.75.632s-.3.647-.737.643C927.643,107.847,927.138,107.851,926.507,107.851Z" transform="translate(-915.777 -98.18)" fill="#121212"/>
</svg>
