<svg xmlns="http://www.w3.org/2000/svg" width="92.579" height="52.501" viewBox="0 0 92.579 52.501">
  <g id="Group_14" data-name="Group 14" transform="translate(-489.307 -285.681)">
    <g id="Group_4" data-name="Group 4" transform="translate(489.307 285.681)">
      <path id="Path_5" data-name="Path 5" d="M502.045,317.8a9.58,9.58,0,1,0,19.16,0V285.691h-5.913V317.8a3.667,3.667,0,1,1-7.333,0V285.691h-5.913Z" transform="translate(-477.573 -285.672)" fill="#161615"/>
      <path id="Path_6" data-name="Path 6" d="M533.945,295.272a9.58,9.58,0,1,0-19.16,0V327.38H520.7V295.272a3.667,3.667,0,1,1,7.333,0V327.38h5.913Z" transform="translate(-465.838 -285.672)" fill="#161615"/>
      <path id="Path_7" data-name="Path 7" d="M490.671,285.681V291.6h11.875v7.06L491.7,311.042a10.419,10.419,0,0,0-1.992,9.519h0l.006.015a9.551,9.551,0,0,0,9.245,6.832,8.93,8.93,0,0,0,5.514-1.84,9.57,9.57,0,0,0,3.988-7.737h0V285.681Zm5.544,29.432,6.33-7.227v9.948a3.661,3.661,0,0,1-3.608,3.62q-.187,0-.369-.017l-.013,0a3.772,3.772,0,0,1-3.374-3.794A3.835,3.835,0,0,1,496.215,315.113Z" transform="translate(-489.307 -285.681)" fill="#161615"/>
      <path id="Path_8" data-name="Path 8" d="M545.317,327.409v-5.923H533.442v-7.06l10.843-12.378a10.42,10.42,0,0,0,1.992-9.519h0l-.006-.015a9.551,9.551,0,0,0-9.245-6.832,8.93,8.93,0,0,0-5.514,1.84,9.57,9.57,0,0,0-3.988,7.736h0v32.151Zm-5.544-29.432-6.33,7.227v-9.948a3.664,3.664,0,0,1,3.608-3.621c.125,0,.248.008.369.019h.013a3.775,3.775,0,0,1,3.374,3.8A3.835,3.835,0,0,1,539.772,297.976Z" transform="translate(-454.102 -285.681)" fill="#161615"/>
    </g>
    <g id="Group_5" data-name="Group 5" transform="translate(513.779 332.892)">
      <path id="Path_9" data-name="Path 9" d="M502.045,312.906a2.579,2.579,0,0,1,.209-1.035,2.7,2.7,0,0,1,.567-.842,2.645,2.645,0,0,1,.841-.565,2.565,2.565,0,0,1,1.036-.209,2.528,2.528,0,0,1,.98.177,2.883,2.883,0,0,1,.8.515.126.126,0,0,1,.008.206l-.323.331c-.05.061-.11.061-.184,0a1.885,1.885,0,0,0-.592-.365,1.864,1.864,0,0,0-.68-.129,1.738,1.738,0,0,0-.73.154,1.945,1.945,0,0,0-.584.415,1.878,1.878,0,0,0-.39.609,1.963,1.963,0,0,0-.14.728,1.931,1.931,0,0,0,.534,1.335,1.835,1.835,0,0,0,.584.411,1.732,1.732,0,0,0,.734.154,1.648,1.648,0,0,0,.7-.138,2.935,2.935,0,0,0,.563-.346.131.131,0,0,1,.177-.008l.336.33a.1.1,0,0,1,.038.1.166.166,0,0,1-.044.1,2.4,2.4,0,0,1-.834.54,2.68,2.68,0,0,1-.951.173,2.666,2.666,0,0,1-1.877-.768,2.68,2.68,0,0,1-.567-.838A2.557,2.557,0,0,1,502.045,312.906Z" transform="translate(-502.045 -310.255)" fill="#161615"/>
      <path id="Path_10" data-name="Path 10" d="M505.667,310.433a.138.138,0,0,1,.04-.1.133.133,0,0,1,.1-.04h2a1.6,1.6,0,0,1,.621.121,1.663,1.663,0,0,1,.511.336,1.563,1.563,0,0,1,.346.5,1.537,1.537,0,0,1,.123.617,1.443,1.443,0,0,1-.081.486,1.6,1.6,0,0,1-.223.419,1.8,1.8,0,0,1-.342.342,1.767,1.767,0,0,1-.442.246l1.007,1.865a.159.159,0,0,1,0,.144.126.126,0,0,1-.129.069h-.572a.113.113,0,0,1-.073-.021.26.26,0,0,1-.046-.044l-.974-1.946h-1.11V315.3a.135.135,0,0,1-.04.1.131.131,0,0,1-.1.04h-.478a.126.126,0,0,1-.1-.04.135.135,0,0,1-.04-.1Zm2.079,2.357a.876.876,0,0,0,.342-.067.9.9,0,0,0,.286-.2.97.97,0,0,0,.194-.29.879.879,0,0,0,.075-.355.828.828,0,0,0-.075-.34.894.894,0,0,0-.194-.279.91.91,0,0,0-.286-.186.847.847,0,0,0-.342-.071h-1.308v1.785Z" transform="translate(-498.709 -310.22)" fill="#161615"/>
      <path id="Path_11" data-name="Path 11" d="M508.975,310.433a.138.138,0,0,1,.04-.1.135.135,0,0,1,.1-.04h2.939a.138.138,0,0,1,.138.14v.411a.13.13,0,0,1-.04.1.139.139,0,0,1-.1.042h-2.323v1.5h1.961a.138.138,0,0,1,.14.138v.413a.135.135,0,0,1-.14.138h-1.961v1.573h2.323a.137.137,0,0,1,.1.04.139.139,0,0,1,.04.1v.407a.138.138,0,0,1-.138.14h-2.939a.128.128,0,0,1-.1-.04.135.135,0,0,1-.04-.1Z" transform="translate(-495.661 -310.22)" fill="#161615"/>
      <path id="Path_12" data-name="Path 12" d="M511.645,315.413a.126.126,0,0,1,0-.133l2.257-4.945a.108.108,0,0,1,.054-.06.164.164,0,0,1,.069-.021h.073a.165.165,0,0,1,.071.021.129.129,0,0,1,.056.06l2.24,4.945a.122.122,0,0,1,0,.133.138.138,0,0,1-.121.058h-.461a.173.173,0,0,1-.171-.11l-.455-1.007h-2.4c-.073.171-.148.34-.223.5s-.152.332-.225.5a.2.2,0,0,1-.06.075.166.166,0,0,1-.11.035h-.463A.138.138,0,0,1,511.645,315.413Zm3.326-1.691-.9-2.013h-.037l-.9,2.013Z" transform="translate(-493.221 -310.255)" fill="#161615"/>
      <path id="Path_13" data-name="Path 13" d="M516.3,310.985h-1.2a.136.136,0,0,1-.1-.042.13.13,0,0,1-.04-.1v-.411a.137.137,0,0,1,.04-.1.134.134,0,0,1,.1-.04h3.158a.133.133,0,0,1,.1.04.14.14,0,0,1,.042.1v.411a.132.132,0,0,1-.042.1.136.136,0,0,1-.1.042h-1.2V315.3a.135.135,0,0,1-.04.1.128.128,0,0,1-.1.04h-.486a.126.126,0,0,1-.1-.04.135.135,0,0,1-.04-.1Z" transform="translate(-490.148 -310.22)" fill="#161615"/>
      <path id="Path_14" data-name="Path 14" d="M517.928,310.433a.139.139,0,0,1,.042-.1.13.13,0,0,1,.1-.04h.484a.135.135,0,0,1,.1.04.138.138,0,0,1,.04.1V315.3a.135.135,0,0,1-.04.1.128.128,0,0,1-.1.04h-.484a.124.124,0,0,1-.1-.04.136.136,0,0,1-.042-.1Z" transform="translate(-487.414 -310.22)" fill="#161615"/>
      <path id="Path_15" data-name="Path 15" d="M519.484,310.483a.123.123,0,0,1,0-.131.143.143,0,0,1,.123-.06h.521a.132.132,0,0,1,.077.025.179.179,0,0,1,.048.056l1.618,3.637h.042l1.618-3.637a.225.225,0,0,1,.044-.056.126.126,0,0,1,.081-.025h.523a.135.135,0,0,1,.119.06.119.119,0,0,1,0,.131l-2.255,4.947a.136.136,0,0,1-.125.081h-.073a.127.127,0,0,1-.125-.081Z" transform="translate(-485.996 -310.22)" fill="#161615"/>
      <path id="Path_16" data-name="Path 16" d="M523.136,310.433a.139.139,0,0,1,.042-.1.133.133,0,0,1,.1-.04h2.941a.135.135,0,0,1,.136.14v.411a.129.129,0,0,1-.038.1.139.139,0,0,1-.1.042h-2.325v1.5h1.963a.133.133,0,0,1,.1.04.135.135,0,0,1,.042.1v.413a.143.143,0,0,1-.042.1.14.14,0,0,1-.1.038h-1.963v1.573h2.325a.135.135,0,0,1,.136.142v.407a.135.135,0,0,1-.136.14h-2.941a.126.126,0,0,1-.1-.04.136.136,0,0,1-.042-.1Z" transform="translate(-482.617 -310.22)" fill="#161615"/>
    </g>
  </g>
</svg>
